HIERARCHY
ROOT pelvis
{
  OFFSET 0 100 0
  CHANNELS 6 Xposition Yposition Zposition Zrotation Xrotation Yrotation
  JOINT pelvis_right_femur
  {
    OFFSET -10.78128 -3.44521 -0.5502486
    CHANNELS 3 Zrotation Xrotation Yrotation
    JOINT right_femur_tibia
    {
      OFFSET -0.8047443 -44.0398 -0.1307829
      CHANNELS 3 Zrotation Xrotation Yrotation
      JOINT right_tibia_foot
      {
        OFFSET 3.006224 -47.83518 -5
        CHANNELS 3 Zrotation Xrotation Yrotation
        End Site
        {
          OFFSET 0 -5 15
        }
      }
    }
  }
  JOINT pelvis_left_femur
  {
    OFFSET 10.78128 -3.44521 -0.5502486
    CHANNELS 3 Zrotation Xrotation Yrotation
    JOINT left_femur_tibia
    {
      OFFSET 0.8047443 -44.0398 -0.1307829
      CHANNELS 3 Zrotation Xrotation Yrotation
      JOINT left_tibia_foot
      {
        OFFSET -4.370144 -48.10324 -4.275266
        CHANNELS 3 Zrotation Xrotation Yrotation
        End Site
        {
          OFFSET 0 -5 15
        }
      }
    }
  }
  JOINT pelvis_spine1
  {
    OFFSET 0 6.468898 -3.129235
    CHANNELS 3 Zrotation Xrotation Yrotation
    JOINT spine1
    {
      OFFSET 0 23.15396 4.99043
      CHANNELS 3 Zrotation Xrotation Yrotation
      JOINT spine2
      {
        OFFSET 0 20.79997 -5.064912
        CHANNELS 3 Zrotation Xrotation Yrotation
        JOINT neck
        {
          OFFSET 0 14.38658 9.616178
          CHANNELS 3 Zrotation Xrotation Yrotation
          End Site
          {
            OFFSET 0 20 0
          }
        }
      }
      JOINT right_manubrium
      {
        OFFSET -5.722621 16.35077 3.967754
        CHANNELS 3 Zrotation Xrotation Yrotation
        JOINT right_clavicle
        {
          OFFSET -13.16364 1.694482 -4.693211
          CHANNELS 3 Zrotation Xrotation Yrotation
          JOINT right_humerus
          {
            OFFSET -28.5034 -0.3100689 -2.792744
            CHANNELS 3 Zrotation Xrotation Yrotation
            JOINT right_radius
            {
              OFFSET -25.15693 0.02248979 -1.271978
              CHANNELS 3 Zrotation Xrotation Yrotation
              End Site
              {
                OFFSET -15 0 0
              }
            }
          }
        }
      }
      JOINT left_manubrium
      {
        OFFSET 5.722621 16.35077 3.967754
        CHANNELS 3 Zrotation Xrotation Yrotation
        JOINT left_clavicle
        {
          OFFSET 13.16364 1.694482 -4.693211
          CHANNELS 3 Zrotation Xrotation Yrotation
          JOINT left_humerus
          {
            OFFSET 29.39168 -1.063119 -2.237045
            CHANNELS 3 Zrotation Xrotation Yrotation
            JOINT left_radius
            {
              OFFSET 24.59957 -0.9528479 0.9047498
              CHANNELS 3 Zrotation Xrotation Yrotation
              End Site
              {
                OFFSET 15 -0 -0
              }
            }
          }
        }
      }
    }
  }
}
MOTION
Frames: 13
Frame Time: 0.0416666666667
0 103.5113 0 1.128365 -1.099224 0.08149121 3.040878 -15.60611 10.60113 -0 40.78634 -0 -5.686885 -18.14381 -4.178657 -7.383704 11.15862 -24.35081 -0 4.435894 -0 10.84587 -16.05798 28.37169 -4.010782 -4.060516 4.423378 2.662605 9.232431 -7.367205 1.760093 22.73679 6.230751 1.93947 -25.05305 10.20807 5.908679 -19.98851 11.33938 85.91589 34.7025 -18.43446 -0 0 15.66164 -6.152788 7.781677 5.254131 4.724959 -18.10946 -1.158176 -93.79225 27.68221 21.92573 0 0 -14.95133 7.613496 16.95648 5.924595
0.2550006 103.8189 1.364884 0.9190195 -0.9024876 0.1416029 3.385149 -16.71907 10.47112 -0 40.25566 -0 -5.789128 -17.41817 -4.066072 -7.232494 11.17222 -24.03327 -0 4.390192 -0 10.56461 -16.46299 28.13981 -3.82465 -3.89687 4.453938 2.622104 9.302645 -7.433962 1.750518 22.56226 6.324789 2.11979 -25.17709 10.16663 5.886854 -20.00513 11.34402 86.01341 34.70837 -18.5997 -0 0 15.65741 -6.195921 7.811805 5.096785 4.988654 -18.46539 -1.183205 -93.73761 27.57896 21.88069 0 0 -15.40325 7.902065 16.92335 5.712589
0.4948081 103.7958 3.778411 -0.7967975 1.447641 0.3223035 6.312715 -27.75521 8.664213 -0 30.24857 -0 -6.514996 -10.57643 -2.768351 -5.944402 12.4896 -20.79957 -0 5.090177 -0 6.522119 -20.86927 24.36341 -2.393611 -2.249031 4.325878 2.544023 9.353369 -8.081703 1.693089 20.99206 7.181653 3.625933 -26.16605 9.89114 5.404326 -19.27253 11.09288 87.03383 34.67555 -20.59225 -0 0 14.69558 -6.732922 8.188513 4.027011 7.343823 -21.42054 -1.197106 -92.56009 27.39206 20.10587 0 0 -20.65702 9.276815 16.26098 4.706652
0.7227182 103.4029 6.998496 -1.117254 1.69325 0.5645716 6.4174 -31.09442 6.071063 -0 23.56628 -0 -7.207895 -5.48523 -1.58387 -5.566827 13.44904 -18.28994 -0 6.733342 -0 4.806911 -21.83605 21.50141 -1.989755 -1.589966 3.876201 2.595933 9.789635 -8.275179 1.516813 20.59399 7.477496 4.029772 -26.14263 9.532276 4.553574 -18.83879 11.21203 88.14038 33.28521 -21.46226 -0 0 13.07245 -9.115757 8.669848 4.956706 7.88911 -22.87755 -1.92103 -90.61561 25.25403 17.69683 0 0 -23.19696 10.38907 15.25423 2.900412
0.9275764 102.6558 11.43471 -0.9530829 1.054053 0.8452005 5.398629 -32.74686 1.325166 -0 14.27595 -0 -8.228455 0.6517327 -0.01892413 -5.501814 14.89347 -14.44796 -0 10.37928 -0 3.389352 -21.78044 17.58783 -1.661587 -1.241111 3.266642 2.665974 10.61793 -8.425626 1.131171 20.53129 7.589356 4.098213 -25.5924 8.76823 2.781255 -18.49235 11.51507 90.23259 29.98395 -22.7018 -0 0 10.27102 -13.39613 9.020942 6.834772 8.018173 -24.81055 -3.446906 -87.52513 20.80426 13.90165 0 0 -26.77276 12.03997 13.57942 -0.3596651
1.095115 101.7642 16.8188 -0.4648117 -0.353691 1.143266 4.178755 -31.67102 -2.714536 -0 8.180243 -0 -9.191597 4.474051 0.8598708 -5.692388 15.97641 -11.31313 -0 14.48662 -0 2.798715 -20.8505 14.97954 -1.397861 -1.452371 2.947256 2.522256 11.41729 -8.440539 0.8018899 20.90269 7.408597 3.897447 -24.69779 7.928651 0.8428373 -18.5203 11.71882 92.41801 26.2512 -23.76181 -0 0 7.893864 -17.10333 8.825363 8.204133 7.768925 -26.41361 -5.034584 -85.27712 16.9021 11.09618 0 0 -29.76437 13.10439 12.54068 -2.881449
1.190668 100.9562 23.00605 0.1172177 -2.329643 1.426402 3.346764 -28.8978 -5.836772 -0 4.548969 -0 -10.29713 6.827045 1.129372 -5.873333 16.65875 -8.612531 -0 20.04761 -0 2.460551 -19.27259 13.35659 -1.01035 -1.999734 2.874502 2.113566 12.16166 -8.347718 0.6097456 21.56685 6.995093 3.643091 -23.48383 7.038044 -1.296622 -18.68864 11.70867 94.73557 22.32682 -24.69784 -0 0 5.83814 -20.17359 8.294662 8.772903 7.383582 -27.87378 -6.624759 -83.6127 13.69823 8.954446 0 0 -32.35221 13.9225 12.23594 -4.983193
1.18836 100.4919 29.65887 0.468257 -4.244665 1.598349 3.349569 -25.49592 -7.02395 -0 4.114626 -0 -11.38477 7.410374 0.7422961 -5.769498 16.46049 -6.987394 -0 26.48741 -0 2.158933 -17.36428 12.99089 -0.5227836 -2.525811 3.012533 1.584728 12.64705 -8.188677 0.661097 22.25958 6.469065 3.46811 -22.33799 6.38658 -2.967707 -18.80977 11.47627 96.4609 19.59935 -25.16963 -0 0 4.675184 -21.6852 7.80608 8.352674 6.981906 -28.70894 -7.722173 -82.86683 12.22083 8.005133 0 0 -33.41126 14.41414 12.74086 -6.209734
1.061096 100.5255 36.44577 0.5010664 -5.954939 1.523804 4.043681 -21.68979 -6.565893 -0 5.896053 -0 -12.46112 6.613115 -0.103498 -5.27609 15.0359 -6.209542 -0 33.98853 -0 1.805675 -15.07393 13.47865 0.01781168 -2.793287 3.283878 1.084418 12.95264 -8.003044 0.905697 22.85382 5.873162 3.343118 -21.39597 5.985047 -4.02108 -18.88275 11.17071 97.45472 18.26928 -25.08499 -0 0 4.397093 -21.85384 7.566121 7.346713 6.481601 -28.83549 -8.348553 -82.93484 12.18713 8.252266 0 0 -32.55309 14.63348 13.71225 -6.686237
0.8103819 101.0939 43.07778 0.2730508 -7.331233 1.118228 5.077369 -17.59649 -5.073096 -0 8.484214 -0 -13.37811 4.840638 -1.132603 -4.473406 12.20018 -5.963269 -0 41.68326 -0 1.513434 -12.56925 14.36039 0.4742425 -2.686848 3.65925 0.7510837 13.20151 -7.814386 1.222665 23.23399 5.270726 3.201807 -20.7713 5.782388 -4.405288 -19.06922 10.9873 97.66885 18.1965 -24.40253 -0 0 4.968893 -21.15801 7.665953 6.349949 5.819631 -28.31904 -8.609528 -83.7349 13.00142 9.7022 0 0 -29.89844 14.50863 14.69018 -6.44556
0.4677094 102.0981 49.37193 -0.0379631 -8.45998 0.387186 6.070507 -13.00701 -3.285589 -0 10.60708 -0 -14.01565 2.527293 -2.126222 -3.50208 7.972227 -5.844814 -0 48.54508 -0 1.419887 -10.03497 15.2991 0.7397486 -2.275467 4.166469 0.5851647 13.52079 -7.593563 1.503609 23.39054 4.676429 2.995317 -20.39256 5.639549 -4.338231 -19.57736 11.02706 97.28471 18.79388 -23.15086 -0 0 6.274097 -20.25132 8.076455 5.814207 5.015872 -27.40564 -8.700134 -85.09479 13.94356 12.19478 0 0 -26.07712 13.9891 15.37246 -5.596135
0.08744471 103.3325 55.27301 -0.265904 -9.414061 -0.5794594 6.742589 -7.95076 -1.788095 -0 11.51935 -0 -14.26304 0.1351798 -2.900429 -2.475107 2.744091 -5.589992 -0 53.13897 -0 1.597622 -7.772149 16.14023 0.7657656 -1.735034 4.808398 0.5081245 13.94397 -7.304966 1.680654 23.34586 4.111352 2.733128 -20.12846 5.435102 -4.094025 -20.5233 11.27358 96.51718 19.47065 -21.43075 -0 0 8.206274 -19.67045 8.719557 5.956091 4.222927 -26.37408 -8.749458 -86.75177 14.47835 15.3899 0 0 -21.95363 13.11629 15.63882 -4.330108
-0.271496 104.5357 60.82954 -0.3608641 -10.21766 -1.660695 7.031482 -2.651307 -0.8282135 -0 11.21403 -0 -14.09762 -2.039486 -3.356212 -1.405221 -2.887894 -5.105118 -0 54.27895 -0 1.974139 -5.993982 16.87662 0.6041258 -1.240018 5.522146 0.4291774 14.39692 -6.938345 1.734485 23.1387 3.597264 2.460328 -19.84881 5.111034 -3.870555 -21.88096 11.6156 95.50844 19.88152 -19.35546 -0 0 10.70941 -19.63719 9.480869 6.714072 3.612028 -25.39403 -8.793021 -88.46405 14.42004 18.91145 0 0 -18.11699 12.02517 15.55364 -2.905105
